<svg xmlns="http://www.w3.org/2000/svg" width="20" height="20" viewBox="0 0 20 20" fill="none" class="site-nav-dropdown-icon">
<g clip-path="url(#clip0_11974_16556)">
<circle cx="7.5" cy="12.5" r="6.5" fill="none" fill-opacity="0.2"/>
<path d="M10.3084 12.5C10.3083 13.1184 10.1249 13.7229 9.78111 14.237C9.43736 14.7511 8.94881 15.1516 8.3773 15.3879C7.8058 15.6242 7.17704 15.6856 6.57062 15.5643C5.96421 15.4431 5.4074 15.1446 4.97069 14.7068C4.53399 14.2689 4.23702 13.7113 4.11738 13.1045C3.99775 12.4978 4.06082 11.8692 4.29863 11.2983C4.53643 10.7275 4.93826 10.24 5.45326 9.89761C5.96826 9.55524 6.57327 9.37336 7.19168 9.37501" stroke="currentColor" stroke-width="1.5" stroke-linecap="round" stroke-linejoin="round"/>
<path d="M13.2167 10.8333C13.3609 11.3771 13.4337 11.9374 13.4334 12.5C13.4282 13.8151 13.0067 15.0948 12.2293 16.1555C11.4518 17.2162 10.3585 18.0035 9.10595 18.4043C7.85343 18.8052 6.50613 18.7991 5.25729 18.3869C4.00845 17.9747 2.92224 17.1776 2.15444 16.1099C1.38665 15.0422 0.976733 13.7588 0.98348 12.4437C0.990228 11.1286 1.41329 9.84941 2.192 8.78964C2.97071 7.72986 4.06504 6.94393 5.31805 6.54457C6.57105 6.14521 7.91834 6.15294 9.16668 6.56666" stroke="currentColor" stroke-width="1.5" stroke-linecap="round" stroke-linejoin="round"/>
<path d="M7.19165 12.5L12.875 6.80835" stroke="currentColor" stroke-width="1.5" stroke-linecap="round" stroke-linejoin="round"/>
<path d="M0.94165 19.375L3.09165 17.2167" stroke="currentColor" stroke-width="1.5" stroke-linecap="round" stroke-linejoin="round"/>
<path d="M13.4334 19.375L11.2834 17.225" stroke="currentColor" stroke-width="1.5" stroke-linecap="round" stroke-linejoin="round"/>
<path d="M16.4083 6.80833C16.2734 6.94827 16.1069 7.05383 15.9227 7.11618C15.7386 7.17852 15.5422 7.19584 15.35 7.16667L12.85 6.80833L12.5 4.33333C12.4731 4.14189 12.4907 3.94684 12.5514 3.7633C12.6121 3.57976 12.7143 3.41267 12.85 3.275L15.525 0.625L16.2833 3.40833L19.0583 4.15833L16.4083 6.80833Z" fill="none" fill-opacity="0.2" stroke="currentColor" stroke-width="1.5" stroke-linecap="round" stroke-linejoin="round"/>
</g>
<defs>
<clipPath id="clip0_11974_16556">
<rect width="20" height="20" fill="white"/>
</clipPath>
</defs>
</svg>