<svg xmlns="http://www.w3.org/2000/svg" width="21" height="21" viewBox="0 0 21 21" fill="none" class="site-nav-dropdown-icon">
<path d="M7.47558 7.92103C7.33637 7.85938 7.21159 7.7693 7.10927 7.65657L6.58427 7.07323C6.43433 6.90403 6.23521 6.78598 6.01482 6.7356C5.79442 6.68523 5.56378 6.70508 5.35523 6.79236C5.14668 6.87964 4.97065 7.02998 4.85183 7.22232C4.733 7.41465 4.67733 7.63934 4.6926 7.8649V8.63992C4.70104 8.79208 4.67729 8.94425 4.6229 9.08658C4.56851 9.22892 4.48471 9.35817 4.37696 9.46592C4.26922 9.57367 4.13996 9.6575 3.99762 9.71183C3.85528 9.76625 3.70308 9.79 3.55093 9.78158L2.7676 9.73992C2.54294 9.72942 2.32052 9.78858 2.13076 9.90925C1.94099 10.03 1.79313 10.2063 1.70741 10.4143C1.62169 10.6223 1.60227 10.8516 1.65183 11.0709C1.70139 11.2903 1.81749 11.489 1.98427 11.6399L2.5676 12.1566C2.68272 12.2623 2.77417 12.3913 2.83592 12.5349C2.89768 12.6785 2.92836 12.8336 2.92593 12.9899C2.92943 13.1464 2.89925 13.3018 2.83742 13.4456C2.77559 13.5893 2.68357 13.7182 2.5676 13.8233L1.98427 14.3483C1.81793 14.4993 1.70226 14.698 1.65305 14.9173C1.60383 15.1365 1.62346 15.3656 1.70927 15.5733C1.7951 15.7802 1.94297 15.9553 2.1325 16.0748C2.32203 16.1942 2.54392 16.2518 2.7676 16.2399H3.55093C3.70308 16.2315 3.85528 16.2553 3.99762 16.3096C4.13996 16.364 4.26922 16.4478 4.37696 16.5555C4.48471 16.6633 4.56851 16.7926 4.6229 16.9349C4.67729 17.0773 4.70104 17.2294 4.6926 17.3816V18.1566C4.67925 18.3814 4.73631 18.6048 4.85585 18.7958C4.97538 18.9867 5.15145 19.1355 5.35956 19.2217C5.56766 19.3078 5.79744 19.3271 6.01695 19.2765C6.23645 19.226 6.43475 19.1083 6.58427 18.9399L7.10927 18.3649C7.21159 18.2522 7.33637 18.1621 7.47558 18.1004C7.61479 18.0388 7.76535 18.0069 7.9176 18.0069C8.06985 18.0069 8.22042 18.0388 8.35963 18.1004C8.49883 18.1621 8.62361 18.2522 8.72593 18.3649L9.25093 18.9399C9.40042 19.1083 9.59875 19.226 9.81825 19.2765C10.0378 19.3271 10.2676 19.3078 10.4757 19.2217C10.6838 19.1355 10.8598 18.9867 10.9793 18.7958C11.0989 18.6048 11.1559 18.3814 11.1426 18.1566V17.3816C11.1342 17.2294 11.1579 17.0773 11.2123 16.9349C11.2667 16.7926 11.3505 16.6633 11.4583 16.5555C11.566 16.4478 11.6953 16.364 11.8376 16.3096C11.9799 16.2553 12.1322 16.2315 12.2843 16.2399H13.0676C13.2913 16.2518 13.5132 16.1942 13.7027 16.0748C13.8923 15.9553 14.0401 15.7802 14.1259 15.5733C14.2118 15.3656 14.2313 15.1365 14.1822 14.9173C14.1329 14.698 14.0173 14.4993 13.8509 14.3483L13.2676 13.8233C13.1517 13.7182 13.0596 13.5893 12.9978 13.4456C12.9359 13.3018 12.9058 13.1464 12.9093 12.9899C12.9068 12.8336 12.9375 12.6785 12.9993 12.5349C13.061 12.3913 13.1525 12.2623 13.2676 12.1566L13.8509 11.6399C14.0178 11.489 14.1338 11.2903 14.1833 11.0709C14.2329 10.8516 14.2135 10.6223 14.1278 10.4143C14.0421 10.2063 13.8943 10.03 13.7044 9.90925C13.5147 9.78858 13.2923 9.72942 13.0676 9.73992L12.2843 9.78158C12.1322 9.79 11.9799 9.76625 11.8376 9.71183C11.6953 9.6575 11.566 9.57367 11.4583 9.46592C11.3505 9.35817 11.2667 9.22892 11.2123 9.08658C11.1579 8.94425 11.1342 8.79208 11.1426 8.63992V7.8649C11.1579 7.63934 11.1022 7.41465 10.9833 7.22232C10.8646 7.02998 10.6885 6.87964 10.48 6.79236C10.2714 6.70508 10.0408 6.68523 9.82042 6.7356C9.6 6.78598 9.40083 6.90403 9.25093 7.07323L8.72593 7.65657C8.62361 7.7693 8.49883 7.85938 8.35963 7.92103C8.22042 7.98268 8.06985 8.01453 7.9176 8.01453C7.76535 8.01453 7.61479 7.98268 7.47558 7.92103Z" fill="currentColor" fill-opacity="0.2" stroke="currentColor" stroke-width="1.5" stroke-linecap="round" stroke-linejoin="round"/>
<path d="M7.9175 14.5315C8.78275 14.5315 9.48413 13.8301 9.48413 12.9649C9.48413 12.0996 8.78275 11.3982 7.9175 11.3982C7.05225 11.3982 6.35083 12.0996 6.35083 12.9649C6.35083 13.8301 7.05225 14.5315 7.9175 14.5315Z" stroke="currentColor" stroke-width="1.5" stroke-linecap="round" stroke-linejoin="round"/>
<path d="M16.1305 5.19857C15.9005 5.19857 15.7139 5.01202 15.7139 4.7819C15.7139 4.55178 15.9005 4.36523 16.1305 4.36523" stroke="currentColor"/>
<path d="M16.1304 5.19857C16.3605 5.19857 16.547 5.01202 16.547 4.7819C16.547 4.55178 16.3605 4.36523 16.1304 4.36523" stroke="currentColor"/>
<path d="M14.4455 1.52922C14.4507 1.35282 14.5126 1.18279 14.6221 1.04437C14.7316 0.905966 14.8828 0.806542 15.0532 0.760866C15.2237 0.715191 15.4044 0.725697 15.5684 0.790826C15.7324 0.855957 15.871 0.972232 15.9637 1.12241L16.4591 1.91761C16.541 2.04966 16.6701 2.14566 16.8201 2.18619C16.9702 2.22672 17.13 2.20877 17.2674 2.13594L18.0899 1.69774C18.2462 1.61545 18.4246 1.58541 18.5992 1.61202C18.7737 1.63865 18.9351 1.72052 19.0596 1.84563C19.1842 1.97075 19.2654 2.1325 19.2912 2.30714C19.317 2.48178 19.2862 2.66012 19.2032 2.81593L18.7642 3.64182C18.6912 3.77954 18.673 3.93978 18.7134 4.09034C18.7537 4.24089 18.8495 4.37059 18.9816 4.45337L19.7727 4.95092C19.9225 5.04437 20.0384 5.18338 20.1033 5.34755C20.1683 5.51172 20.1789 5.69237 20.1335 5.86301C20.0882 6.03363 19.9894 6.18524 19.8515 6.29556C19.7137 6.40587 19.5441 6.46908 19.3677 6.47592L18.4362 6.50774C18.2809 6.51333 18.1334 6.5777 18.0238 6.68782C17.9141 6.79795 17.8504 6.94561 17.8454 7.10096L17.8158 8.03427C17.8105 8.21067 17.7486 8.38067 17.6391 8.51908C17.5297 8.6575 17.3784 8.75692 17.208 8.80258C17.0375 8.84833 16.8569 8.83775 16.6929 8.77266C16.5289 8.7075 16.3902 8.59125 16.2975 8.44108L15.8016 7.64604C15.7198 7.514 15.5908 7.41797 15.4409 7.37741C15.2909 7.33685 15.1312 7.35476 14.9939 7.42754L14.1707 7.8659C14.0145 7.9482 13.836 7.97824 13.6615 7.95162C13.4869 7.925 13.3256 7.84312 13.201 7.71801C13.0764 7.5929 12.9953 7.43114 12.9694 7.2565C12.9436 7.08186 12.9744 6.90353 13.0574 6.74771L13.4944 5.92112C13.5674 5.78339 13.5855 5.62315 13.5452 5.4726C13.5049 5.32204 13.409 5.19234 13.2769 5.10957L12.4859 4.61457C12.3361 4.52111 12.2202 4.38209 12.1553 4.21792C12.0904 4.05377 12.0798 3.8731 12.125 3.70247C12.1704 3.53184 12.2692 3.38023 12.407 3.26992C12.5449 3.15961 12.7144 3.09639 12.8909 3.08957L13.823 3.05757C13.9782 3.05198 14.1255 2.98762 14.2351 2.87752C14.3447 2.76741 14.4084 2.61978 14.4132 2.46452L14.4455 1.52922Z" fill="currentColor" fill-opacity="0.2" stroke="currentColor" stroke-width="1.3" stroke-linecap="round" stroke-linejoin="round"/>
</svg>