<svg xmlns="http://www.w3.org/2000/svg" fill="none" height="16" viewBox="0 0 16 16" width="16" role="img" class="icon btn-dropdown-option"><rect fill="#071d25" height="16" rx="3" width="16"/><path d="m3.86621 4.11333c0-.04666.09333-.08.14667-.08.42666-.02 1.06-.03333 1.72-.03333 1.84666 0 2.56666 1.01333 2.56666 2.31333 0 1.69334-1.22666 2.42-2.73333 2.42-.25333 0-.34-.01333-.52-.01333v2.56c0 .0533-.02.08-.08.08h-1.02c-.05333 0-.08-.02-.08-.08zm1.18667 3.54c.15333.01334.27333.01334.54.01334.78 0 1.51333-.27334 1.51333-1.33334 0-.84666-.52667-1.27333-1.41333-1.27333-.26667 0-.52.01333-.64.02zm5.73332-.79333c-.5267 0-.7067.26667-.7067.48667 0 .24.12.40666.8267.77333 1.0467.50667 1.3733.99333 1.3733 1.70667 0 1.06663-.8133 1.64003-1.9133 1.64003-.57999 0-1.07999-.12-1.36666-.2867-.04666-.02-.05333-.0533-.05333-.1067v-.98c0-.0666.03333-.0866.08-.0533.42.2733.9.3933 1.33999.3933.5267 0 .7467-.22.7467-.51997 0-.24-.1534-.45333-.8267-.8-.94665-.45333-1.33999-.91333-1.33999-1.68 0-.86.67333-1.57333 1.83999-1.57333.5733 0 .9733.08667 1.1933.18667.0534.03333.0667.08666.0667.13333v.91333c0 .05334-.0333.08667-.1.06667-.2933-.18667-.7267-.3-1.16-.3z" fill="#57c6fa"/></svg>